<?xml version="1.0" standalone="no"?><!DOCTYPE svg PUBLIC "-//W3C//DTD SVG 1.1//EN" "http://www.w3.org/Graphics/SVG/1.1/DTD/svg11.dtd"><svg t="1721307949512" class="icon" viewBox="0 0 1024 1024" version="1.1" xmlns="http://www.w3.org/2000/svg" p-id="14175" xmlns:xlink="http://www.w3.org/1999/xlink" width="200" height="200"><path d="M841.152 86.144 195.2 86.144c-51.328 0-92.992 41.664-92.992 92.992l0 646.016c0 51.392 41.664 92.992 92.992 92.992l645.952 0c51.392 0 92.992-41.6 92.992-92.992L934.144 179.136C934.144 127.808 892.352 86.144 841.152 86.144zM813.44 731.392c0 36.416-29.632 65.984-66.048 65.984L585.28 797.376l-40.128 40.192L540.992 837.568c-4.672 7.936-12.928 13.504-22.784 13.504-9.856 0-18.112-5.568-22.784-13.504L491.328 837.568l-40.192-40.192L288.96 797.376c-36.416 0-65.984-29.568-65.984-65.984L222.976 272.896c0-36.416 29.568-65.984 65.984-65.984l458.432 0c36.416 0 66.048 29.568 66.048 65.984L813.44 731.392z" p-id="14176"></path></svg>